<svg width="53" height="53" viewBox="0 0 53 53" fill="none" xmlns="http://www.w3.org/2000/svg">
<path d="M14.8333 8.19861C9.96397 7.40112 9.164 6.60116 8.36652 1.73178C8.36652 1.70916 8.35753 1.68746 8.34153 1.67147C8.32554 1.65547 8.30384 1.64648 8.28122 1.64648C8.2586 1.64648 8.2369 1.65547 8.22091 1.67147C8.20491 1.68746 8.19592 1.70916 8.19592 1.73178C7.39844 6.59867 6.59847 7.39864 1.7291 8.19861C1.70647 8.19861 1.68478 8.2076 1.66878 8.22359C1.65279 8.23959 1.6438 8.26128 1.6438 8.28391C1.6438 8.30653 1.65279 8.32822 1.66878 8.34422C1.68478 8.36022 1.70647 8.3692 1.7291 8.3692C6.59847 9.16669 7.39844 9.96666 8.19592 14.836C8.19592 14.8587 8.20491 14.8803 8.22091 14.8963C8.2369 14.9123 8.2586 14.9213 8.28122 14.9213C8.30384 14.9213 8.32554 14.9123 8.34153 14.8963C8.35753 14.8803 8.36652 14.8587 8.36652 14.836C9.164 9.96666 9.96397 9.16669 14.8333 8.3692C14.856 8.3692 14.8777 8.36022 14.8937 8.34422C14.9097 8.32822 14.9186 8.30653 14.9186 8.28391C14.9186 8.26128 14.9097 8.23959 14.8937 8.22359C14.8777 8.2076 14.856 8.19861 14.8333 8.19861Z" fill="#1C3166"/>
<path d="M9.25844 19.875H4.48438C3.37981 19.875 2.48438 20.7704 2.48438 21.875V49.3437C2.48438 50.4483 3.37981 51.3438 4.48438 51.3438H48.5156C49.6202 51.3438 50.5156 50.4483 50.5156 49.3438V21.875C50.5156 20.7704 49.6202 19.875 48.5156 19.875H9.25844Z" fill="#4F5D75"/>
<path d="M26.5 51.3438L26.1779 51.1276C23.3425 49.1981 19.9922 48.1662 16.5625 48.1662C13.1328 48.1662 9.78253 49.1981 6.94714 51.1276L6.625 51.3438V21.3963L6.94714 21.1801C9.78253 19.2506 13.1328 18.2188 16.5625 18.2188C19.9922 18.2187 23.3425 19.2506 26.1779 21.1801L26.5 21.3963V51.3438ZM33.9531 18.4009C32.2827 18.6523 30.6587 19.149 29.1334 19.875C28.3326 20.2547 27.5604 20.692 26.823 21.1834L26.5 21.3988V51.3438L26.823 51.1284C29.6578 49.1982 33.0079 48.1659 36.4375 48.1659C39.8671 48.1659 43.2172 49.1982 46.052 51.1284L46.375 51.3438V21.3988L46.052 21.1834C45.3146 20.692 44.5424 20.2547 43.7416 19.875C42.2163 19.149 40.5923 18.6523 38.9219 18.4009H33.9531Z" fill="#1C3166"/>
<path d="M14.0781 24.0156H24.0156V25.6719H14.0781V24.0156ZM9.10938 29.8125H24.0156V31.4688H9.10938V29.8125ZM9.10938 36.4375H24.0156V38.0938H9.10938V36.4375ZM9.10938 43.0625H24.0156V44.7188H9.10938V43.0625Z" fill="white"/>
<path d="M31.7244 35.4847L38.4738 30.0813L34.3849 27.2583L31.7244 35.4847Z" fill="#4F5D75"/>
<path d="M44.7357 12.2656L48.8247 15.0886L38.4738 30.0814L34.3849 27.2584L44.7357 12.2656Z" fill="white"/>
<path d="M47.9808 10.481L49.3438 11.422C49.7052 11.6716 49.9528 12.0545 50.0319 12.4866C50.1111 12.9187 50.0153 13.3645 49.7658 13.726L48.8248 15.089L44.7358 12.266L45.6768 10.903C45.9264 10.5415 46.3093 10.294 46.7414 10.2149C47.1735 10.1357 47.6193 10.2315 47.9808 10.481Z" fill="#1C3166"/>
</svg>
